<svg xmlns="http://www.w3.org/2000/svg" xmlns:xlink="http://www.w3.org/1999/xlink" width="512" zoomAndPan="magnify" viewBox="0 0 384 383.999986" height="512" preserveAspectRatio="xMidYMid meet" version="1.0"><defs><clipPath id="e1a67cbd02"><path d="M 42.203125 37.570312 L 341.453125 37.570312 L 341.453125 346.570312 L 42.203125 346.570312 Z M 42.203125 37.570312 " clip-rule="nonzero"/></clipPath></defs><g clip-path="url(#e1a67cbd02)"><path fill="#d32f2f" d="M 295.28125 37.570312 C 299.59375 37.570312 303.128906 41.09375 303.128906 45.421875 L 303.128906 72.238281 C 303.128906 76.554688 299.59375 80.089844 295.28125 80.089844 C 290.964844 80.089844 287.441406 76.554688 287.441406 72.238281 L 287.441406 45.421875 C 287.441406 41.09375 290.964844 37.570312 295.28125 37.570312 Z M 42.6875 99.484375 L 42.6875 305.828125 C 42.6875 328.1875 60.980469 346.480469 83.339844 346.480469 L 300.644531 346.480469 C 323.003906 346.480469 341.308594 328.1875 341.308594 305.828125 L 341.308594 99.484375 C 341.308594 79.519531 326.722656 62.792969 307.679688 59.4375 L 307.679688 72.238281 C 307.679688 79.066406 302.105469 84.636719 295.28125 84.636719 C 288.453125 84.636719 282.882812 79.066406 282.882812 72.238281 L 282.882812 58.832031 L 101.113281 58.832031 L 101.113281 72.238281 C 101.113281 79.066406 95.542969 84.636719 88.703125 84.636719 C 81.875 84.636719 76.304688 79.066406 76.304688 72.238281 L 76.304688 59.4375 C 57.273438 62.792969 42.6875 79.519531 42.6875 99.484375 Z M 59.644531 146.382812 L 324.351562 146.382812 L 324.351562 314.636719 C 324.351562 324.261719 316.472656 332.140625 306.847656 332.140625 L 77.148438 332.140625 C 67.519531 332.140625 59.644531 324.261719 59.644531 314.636719 Z M 88.703125 37.570312 C 93.03125 37.570312 96.554688 41.09375 96.554688 45.421875 L 96.554688 72.238281 C 96.554688 76.554688 93.03125 80.089844 88.703125 80.089844 C 84.390625 80.089844 80.867188 76.554688 80.867188 72.238281 L 80.867188 45.421875 C 80.867188 41.09375 84.390625 37.570312 88.703125 37.570312 Z M 241.589844 254.03125 L 283.4375 254.03125 L 283.4375 295.863281 L 241.589844 295.863281 Z M 171.410156 254.03125 L 213.257812 254.03125 L 213.257812 295.863281 L 171.410156 295.863281 Z M 101.738281 254.03125 L 143.570312 254.03125 L 143.570312 295.863281 L 101.738281 295.863281 Z M 241.589844 184.511719 L 283.4375 184.511719 L 283.4375 226.359375 L 241.589844 226.359375 Z M 171.410156 184.511719 L 213.257812 184.511719 L 213.257812 226.359375 L 171.410156 226.359375 Z M 101.738281 184.511719 L 143.570312 184.511719 L 143.570312 226.359375 L 101.738281 226.359375 Z M 101.738281 184.511719 " fill-opacity="1" fill-rule="evenodd"/></g></svg>